<svg id="calendar" xmlns="http://www.w3.org/2000/svg" xmlns:xlink="http://www.w3.org/1999/xlink" width="20.411" height="22.648" viewBox="0 0 20.411 22.648">
  <defs>
    <clipPath id="clip-path">
      <rect id="Rectangle_793" data-name="Rectangle 793" width="20.411" height="22.648" fill="#585454"/>
    </clipPath>
  </defs>
  <g id="Group_728" data-name="Group 728" clip-path="url(#clip-path)">
    <path id="Path_286" data-name="Path 286" d="M18.273,2.237h-3V.427a.427.427,0,0,0-.855,0v1.81H5.993V.427a.427.427,0,1,0-.855,0v1.81h-3A2.14,2.14,0,0,0,0,4.375V20.511a2.14,2.14,0,0,0,2.138,2.137H18.273a2.14,2.14,0,0,0,2.138-2.137V4.375a2.14,2.14,0,0,0-2.138-2.138M2.138,3.092h3V4.9a.427.427,0,0,0,.855,0V3.092h8.424V4.9a.427.427,0,0,0,.855,0V3.092h3a1.284,1.284,0,0,1,1.283,1.282V6.761H.855V4.375A1.284,1.284,0,0,1,2.138,3.092m16.136,18.7H2.138A1.284,1.284,0,0,1,.855,20.511V7.616h18.7V20.511a1.284,1.284,0,0,1-1.283,1.282" transform="translate(0 0)" fill="#585454"/>
    <path id="Path_287" data-name="Path 287" d="M28.541,74.522a2.05,2.05,0,1,0,2.05,2.05,2.052,2.052,0,0,0-2.05-2.05m0,3.245a1.2,1.2,0,1,1,1.2-1.2,1.2,1.2,0,0,1-1.2,1.2" transform="translate(-22.975 -64.632)" fill="#585454"/>
    <path id="Path_288" data-name="Path 288" d="M63.5,74.522a2.05,2.05,0,1,0,2.05,2.05,2.052,2.052,0,0,0-2.05-2.05m0,3.245a1.2,1.2,0,1,1,1.2-1.2,1.2,1.2,0,0,1-1.2,1.2" transform="translate(-53.293 -64.632)" fill="#585454"/>
    <path id="Path_289" data-name="Path 289" d="M98.454,74.522a2.05,2.05,0,1,0,2.05,2.05,2.053,2.053,0,0,0-2.05-2.05m0,3.245a1.2,1.2,0,1,1,1.2-1.2,1.2,1.2,0,0,1-1.2,1.2" transform="translate(-83.609 -64.632)" fill="#585454"/>
    <path id="Path_290" data-name="Path 290" d="M28.541,111.465a2.05,2.05,0,1,0,2.05,2.05,2.052,2.052,0,0,0-2.05-2.05m0,3.245a1.2,1.2,0,1,1,1.2-1.2,1.2,1.2,0,0,1-1.2,1.2" transform="translate(-22.975 -96.672)" fill="#585454"/>
    <path id="Path_291" data-name="Path 291" d="M63.5,111.465a2.05,2.05,0,1,0,2.05,2.05,2.052,2.052,0,0,0-2.05-2.05m0,3.245a1.2,1.2,0,1,1,1.2-1.2,1.2,1.2,0,0,1-1.2,1.2" transform="translate(-53.293 -96.672)" fill="#585454"/>
    <path id="Path_292" data-name="Path 292" d="M98.454,111.465a2.05,2.05,0,1,0,2.05,2.05,2.053,2.053,0,0,0-2.05-2.05m0,3.245a1.2,1.2,0,1,1,1.2-1.2,1.2,1.2,0,0,1-1.2,1.2" transform="translate(-83.609 -96.672)" fill="#585454"/>
  </g>
</svg>
