<svg xmlns="http://www.w3.org/2000/svg" xmlns:xlink="http://www.w3.org/1999/xlink" width="14.356" height="16.47" viewBox="0 0 14.356 16.47">
  <defs>
    <clipPath id="clip-path">
      <rect id="Rectangle_1640" data-name="Rectangle 1640" width="14.356" height="16.47" fill="#3e8ad6" stroke="#3e8ad6" stroke-width="1"/>
    </clipPath>
  </defs>
  <g id="Group_1518" data-name="Group 1518" clip-path="url(#clip-path)">
    <path id="Path_746" data-name="Path 746" d="M14.356,4.406a.3.3,0,0,0-.005-.053l0-.007a.3.3,0,0,0-.013-.043l-.007-.016a.317.317,0,0,0-.018-.033L14.3,4.241a.3.3,0,0,0-.033-.04L10.155.087l0,0h0A.3.3,0,0,0,9.946,0H4.12a.766.766,0,0,0-.765.765V3.356H.765A.766.766,0,0,0,0,4.12V15.706a.766.766,0,0,0,.765.765h9.471A.766.766,0,0,0,11,15.706V13.114h2.591a.766.766,0,0,0,.765-.765V4.411s0,0,0-.006m-4.113-3.39,3.1,3.1H11.373a1.131,1.131,0,0,1-1.13-1.13Zm.163,14.69a.17.17,0,0,1-.17.17H.765a.17.17,0,0,1-.17-.17V4.12a.17.17,0,0,1,.17-.17H6.292V6.34A1.727,1.727,0,0,0,8.017,8.065h2.389ZM6.887,6.34V4.371l3.1,3.1H8.017a1.131,1.131,0,0,1-1.13-1.13m6.7,6.18H11V7.77c0-.006,0-.011,0-.017a.3.3,0,0,0-.075-.183h0l-.01-.011L6.8,3.443l0,0h0a.3.3,0,0,0-.205-.083H3.951V.765a.17.17,0,0,1,.17-.17H9.648V2.984a1.727,1.727,0,0,0,1.725,1.725h2.389V12.35a.17.17,0,0,1-.17.17" fill="#3e8ad6" stroke="#3e8ad6" stroke-width="1"/>
  </g>
</svg>
