<svg xmlns="http://www.w3.org/2000/svg" xmlns:xlink="http://www.w3.org/1999/xlink" width="15.504" height="14.931" viewBox="0 0 15.504 14.931">
  <defs>
    <clipPath id="clip-path">
      <rect id="Rectangle_1633" data-name="Rectangle 1633" width="15.504" height="14.931" fill="#585454"/>
    </clipPath>
  </defs>
  <g id="Group_1500" data-name="Group 1500" transform="translate(0 -0.003)">
    <g id="Group_1499" data-name="Group 1499" transform="translate(0 0.003)" clip-path="url(#clip-path)">
      <path id="Path_742" data-name="Path 742" d="M8.038,14.934a7.432,7.432,0,0,1-4.146-1.256A1,1,0,1,1,5,12.023,5.475,5.475,0,1,0,5,2.914l-.023.015-.014.008h0a4.341,4.341,0,0,0-.767.658,3.857,3.857,0,0,0-.678.983l-.081.173.878.19a.48.48,0,0,1,.254.792L1.883,8.689a.38.38,0,0,1-.643-.139L.023,4.751a.475.475,0,0,1,.069-.429.481.481,0,0,1,.387-.2.489.489,0,0,1,.1.011l.893.194L1.521,4.2a5.266,5.266,0,0,1,.394-.855A6.045,6.045,0,0,1,2.78,2.193,6.133,6.133,0,0,1,3.906,1.25h0A7.433,7.433,0,0,1,8.038,0a7.516,7.516,0,0,1,1.5.152,7.43,7.43,0,0,1,2.671,1.124,7.485,7.485,0,0,1,2.7,3.284,7.435,7.435,0,0,1,.435,1.4,7.529,7.529,0,0,1,0,3.007,7.43,7.43,0,0,1-1.124,2.671,7.485,7.485,0,0,1-3.284,2.7,7.436,7.436,0,0,1-1.4.435,7.516,7.516,0,0,1-1.5.152" transform="translate(0 -0.003)" fill="#585454"/>
    </g>
  </g>
</svg>
